<svg xmlns="http://www.w3.org/2000/svg" xmlns:xlink="http://www.w3.org/1999/xlink" width="1410" height="2144.16"><rect width="1410" height="2144.16" rx="5" ry="5" class="a"/><svg y="0%" x="0%"><circle cx="20" cy="20" r="6" fill="#ff5f58"/><circle cx="40" cy="20" r="6" fill="#ffbd2e"/><circle cx="60" cy="20" r="6" fill="#18c132"/></svg><svg height="2084.16" viewBox="0 0 137 208.416" width="1370" x="15" xmlns="http://www.w3.org/2000/svg" xmlns:xlink="http://www.w3.org/1999/xlink" y="50"><style>@keyframes p{0%{transform:translateX(0)}20%{transform:translateX(-137px)}20.1%{transform:translateX(-274px)}20.2%{transform:translateX(-411px)}22%{transform:translateX(-685px)}35.3%{transform:translateX(-822px)}37.5%{transform:translateX(-959px)}41.3%{transform:translateX(-1096px)}44.9%{transform:translateX(-1233px)}49.8%{transform:translateX(-1370px)}67.1%{transform:translateX(-1507px)}68.6%{transform:translateX(-1644px)}72.4%{transform:translateX(-1781px)}77.7%{transform:translateX(-2055px)}77.8%{transform:translateX(-2192px)}78.4%{transform:translateX(-3151px)}78.6%{transform:translateX(-3288px)}80.3%{transform:translateX(-3562px)}to{transform:translateX(-3699px)}}.a{fill:#282d35}.f,.g{white-space:pre}.f{fill:#a8cc8c;font-weight:700}.g{fill:#66c2cd}.g,.h,.i{font-weight:700}.h{fill:#71bef2;white-space:pre}.i{fill:#e88388}.i,.j,.k{white-space:pre}.j{fill:#dbab79;font-weight:700}.k{fill:#b9c0cb}.l{text-decoration:underline}.l,.m{fill:#b9c0cb;font-weight:700;white-space:pre}</style><g font-family="Monaco,Consolas,Menlo,'Bitstream Vera Sans Mono','Powerline Symbols',monospace" font-size="1.67"><defs><symbol id="1"><text y="1.67" class="f">➜</text><text x="3.006" y="1.67" class="g">otoroshictl</text><text x="15.03" y="1.67" class="h">git:(</text><text x="20.04" y="1.67" class="i">main</text><text x="24.048" y="1.67" class="h">)</text><text x="26.052" y="1.67" class="j">✗</text></symbol><symbol id="2"><text y="1.67" class="f">➜</text><text x="3.006" y="1.67" class="g">otoroshictl</text><text x="15.03" y="1.67" class="h">git:(</text><text x="20.04" y="1.67" class="i">main</text><text x="24.048" y="1.67" class="h">)</text><text x="26.052" y="1.67" class="j">✗</text><text x="28.056" y="1.67" class="k">otoroshictl</text></symbol><symbol id="3"><text y="1.67" class="f">➜</text><text x="3.006" y="1.67" class="g">otoroshictl</text><text x="15.03" y="1.67" class="h">git:(</text><text x="20.04" y="1.67" class="i">main</text><text x="24.048" y="1.67" class="h">)</text><text x="26.052" y="1.67" class="j">✗</text><text x="28.056" y="1.67" class="k">otoroshictl</text><text x="40.08" y="1.67" class="k">-h</text></symbol><symbol id="4"><text y="1.67" class="k">Manage</text><text x="7.014" y="1.67" class="k">your</text><text x="12.024" y="1.67" class="k">otoroshi</text><text x="21.042" y="1.67" class="k">clusters</text><text x="30.06" y="1.67" class="k">with</text><text x="35.07" y="1.67" class="k">style.</text><text x="42.084" y="1.67" class="k">otoroshictl</text><text x="54.108" y="1.67" class="k">is</text><text x="57.114" y="1.67" class="k">a</text><text x="59.118" y="1.67" class="k">CLI</text><text x="63.126" y="1.67" class="k">that</text><text x="68.136" y="1.67" class="k">can</text><text x="72.144" y="1.67" class="k">interact</text><text x="81.162" y="1.67" class="k">with</text><text x="86.172" y="1.67" class="k">the</text><text x="90.18" y="1.67" class="k">admin</text><text x="96.192" y="1.67" class="k">api</text><text x="100.2" y="1.67" class="k">of</text><text x="103.206" y="1.67" class="k">an</text><text x="106.212" y="1.67" class="k">otoroshi</text><text x="115.23" y="1.67" class="k">cluster.</text></symbol><symbol id="5"><text y="1.67" class="k">You</text><text x="4.008" y="1.67" class="k">can</text><text x="8.016" y="1.67" class="k">also</text><text x="13.026" y="1.67" class="k">use</text><text x="17.034" y="1.67" class="k">it</text><text x="20.04" y="1.67" class="k">to</text><text x="23.046" y="1.67" class="k">expose</text><text x="30.06" y="1.67" class="k">local</text><text x="36.072" y="1.67" class="k">process</text><text x="44.088" y="1.67" class="k">through</text><text x="52.104" y="1.67" class="k">the</text><text x="56.112" y="1.67" class="k">otoroshi</text><text x="65.13" y="1.67" class="k">remote</text><text x="72.144" y="1.67" class="k">tunnels</text><text x="80.16" y="1.67" class="k">feature</text><text x="88.176" y="1.67" class="k">and</text><text x="92.184" y="1.67" class="k">as</text><text x="95.19" y="1.67" class="k">an</text><text x="98.196" y="1.67" class="k">universal</text><text x="108.216" y="1.67" class="k">sidecar</text><text x="116.232" y="1.67" class="k">to</text><text x="119.238" y="1.67" class="k">create</text><text x="126.252" y="1.67" class="k">a</text><text x="128.256" y="1.67" class="k">service</text><text x="136.272" y="1.67" class="k">m</text></symbol><symbol id="6"><text y="1.67" class="k">esh</text><text x="4.008" y="1.67" class="k">based</text><text x="10.02" y="1.67" class="k">on</text><text x="13.026" y="1.67" class="k">otoroshi.</text><text x="23.046" y="1.67" class="k">otoroshictl</text><text x="35.07" y="1.67" class="k">also</text><text x="40.08" y="1.67" class="k">provide</text><text x="48.096" y="1.67" class="k">a</text><text x="50.1" y="1.67" class="k">nice</text><text x="55.11" y="1.67" class="k">integration</text><text x="67.134" y="1.67" class="k">with</text><text x="72.144" y="1.67" class="k">cloud-apim,</text><text x="84.168" y="1.67" class="k">the</text><text x="88.176" y="1.67" class="k">managed</text><text x="96.192" y="1.67" class="k">otoroshi</text><text x="105.21" y="1.67" class="k">instances</text><text x="115.23" y="1.67" class="k">provider.</text></symbol><symbol id="7"><text y="1.67" class="k">otoroshictl</text><text x="12.024" y="1.67" class="k">is</text><text x="15.03" y="1.67" class="k">an</text><text x="18.036" y="1.67" class="k">open-source</text><text x="30.06" y="1.67" class="k">tool</text><text x="35.07" y="1.67" class="k">proudly</text><text x="43.086" y="1.67" class="k">provided</text><text x="52.104" y="1.67" class="k">by</text><text x="55.11" y="1.67" class="k">cloud-apim</text><text x="66.132" y="1.67" class="k">(https://www.cloud-apim.com).</text><text x="96.192" y="1.67" class="k">The</text><text x="100.2" y="1.67" class="k">sources</text><text x="108.216" y="1.67" class="k">of</text><text x="111.222" y="1.67" class="k">otoroshictl</text><text x="123.246" y="1.67" class="k">are</text><text x="127.254" y="1.67" class="k">available</text></symbol><symbol id="8"><text y="1.67" class="k">on</text><text x="3.006" y="1.67" class="k">github</text><text x="10.02" y="1.67" class="k">at</text><text x="13.026" y="1.67" class="k">https://github.com/cloud-apim/otoroshictl</text></symbol><symbol id="9"><text y="1.67" class="l">Usage:</text><text x="7.014" y="1.67" class="m">otoroshictl</text><text x="19.038" y="1.67" class="k">[OPTIONS]</text><text x="29.058" y="1.67" class="k">[COMMAND]</text></symbol><symbol id="10"><text y="1.67" class="l">Commands:</text></symbol><symbol id="11"><text x="2.004" y="1.67" class="m">resources</text><text x="17.034" y="1.67" class="k">Manage</text><text x="24.048" y="1.67" class="k">all</text><text x="28.056" y="1.67" class="k">the</text><text x="32.064" y="1.67" class="k">resources</text><text x="42.084" y="1.67" class="k">(entities)</text><text x="53.106" y="1.67" class="k">of</text><text x="56.112" y="1.67" class="k">the</text><text x="60.12" y="1.67" class="k">current</text><text x="68.136" y="1.67" class="k">otoroshi</text><text x="77.154" y="1.67" class="k">cluster</text></symbol><symbol id="12"><text x="2.004" y="1.67" class="m">sidecar</text><text x="17.034" y="1.67" class="k">Manage</text><text x="24.048" y="1.67" class="k">an</text><text x="27.054" y="1.67" class="k">otoroshi</text><text x="36.072" y="1.67" class="k">mesh</text><text x="41.082" y="1.67" class="k">sidecar</text></symbol><symbol id="13"><text x="2.004" y="1.67" class="m">tcp-tunnel</text><text x="17.034" y="1.67" class="k">Manage</text><text x="24.048" y="1.67" class="k">otoroshi</text><text x="33.066" y="1.67" class="k">tcp</text><text x="37.074" y="1.67" class="k">tunnel</text><text x="44.088" y="1.67" class="k">to</text><text x="47.094" y="1.67" class="k">access</text><text x="54.108" y="1.67" class="k">tcp</text><text x="58.116" y="1.67" class="k">resources</text><text x="68.136" y="1.67" class="k">through</text><text x="76.152" y="1.67" class="k">the</text><text x="80.16" y="1.67" class="k">current</text><text x="88.176" y="1.67" class="k">otoroshi</text><text x="97.194" y="1.67" class="k">cluster</text><text x="105.21" y="1.67" class="k">(not</text><text x="110.22" y="1.67" class="k">implemented</text><text x="122.244" y="1.67" class="k">yet)</text></symbol><symbol id="14"><text x="2.004" y="1.67" class="m">cloud-apim</text><text x="17.034" y="1.67" class="k">Manage</text><text x="24.048" y="1.67" class="k">cloud</text><text x="30.06" y="1.67" class="k">apim</text><text x="35.07" y="1.67" class="k">clusters</text></symbol><symbol id="15"><text x="2.004" y="1.67" class="m">remote-tunnel</text><text x="17.034" y="1.67" class="k">Exposes</text><text x="25.05" y="1.67" class="k">local</text><text x="31.062" y="1.67" class="k">processes</text><text x="41.082" y="1.67" class="k">on</text><text x="44.088" y="1.67" class="k">the</text><text x="48.096" y="1.67" class="k">current</text><text x="56.112" y="1.67" class="k">otoroshi</text><text x="65.13" y="1.67" class="k">cluster</text><text x="73.146" y="1.67" class="k">through</text><text x="81.162" y="1.67" class="k">the</text><text x="85.17" y="1.67" class="k">otoroshi</text><text x="94.188" y="1.67" class="k">remote</text><text x="101.202" y="1.67" class="k">tunnel</text><text x="108.216" y="1.67" class="k">feature</text></symbol><symbol id="16"><text x="2.004" y="1.67" class="m">version</text><text x="17.034" y="1.67" class="k">Display</text><text x="25.05" y="1.67" class="k">the</text><text x="29.058" y="1.67" class="k">version</text><text x="37.074" y="1.67" class="k">of</text><text x="40.08" y="1.67" class="k">the</text><text x="44.088" y="1.67" class="k">current</text><text x="52.104" y="1.67" class="k">otoroshi</text><text x="61.122" y="1.67" class="k">cluster</text></symbol><symbol id="17"><text x="2.004" y="1.67" class="m">infos</text><text x="17.034" y="1.67" class="k">Display</text><text x="25.05" y="1.67" class="k">the</text><text x="29.058" y="1.67" class="k">informations</text><text x="42.084" y="1.67" class="k">about</text><text x="48.096" y="1.67" class="k">the</text><text x="52.104" y="1.67" class="k">current</text><text x="60.12" y="1.67" class="k">otoroshi</text><text x="69.138" y="1.67" class="k">cluster</text></symbol><symbol id="18"><text x="2.004" y="1.67" class="m">entities</text><text x="17.034" y="1.67" class="k">Display</text><text x="25.05" y="1.67" class="k">the</text><text x="29.058" y="1.67" class="k">managed</text><text x="37.074" y="1.67" class="k">entities</text><text x="46.092" y="1.67" class="k">of</text><text x="49.098" y="1.67" class="k">the</text><text x="53.106" y="1.67" class="k">current</text><text x="61.122" y="1.67" class="k">otoroshi</text><text x="70.14" y="1.67" class="k">cluster</text></symbol><symbol id="19"><text x="2.004" y="1.67" class="m">health</text><text x="17.034" y="1.67" class="k">Display</text><text x="25.05" y="1.67" class="k">the</text><text x="29.058" y="1.67" class="k">health</text><text x="36.072" y="1.67" class="k">status</text><text x="43.086" y="1.67" class="k">of</text><text x="46.092" y="1.67" class="k">the</text><text x="50.1" y="1.67" class="k">current</text><text x="58.116" y="1.67" class="k">otoroshi</text><text x="67.134" y="1.67" class="k">cluster</text></symbol><symbol id="20"><text x="2.004" y="1.67" class="m">metrics</text><text x="17.034" y="1.67" class="k">Display</text><text x="25.05" y="1.67" class="k">metrics</text><text x="33.066" y="1.67" class="k">of</text><text x="36.072" y="1.67" class="k">the</text><text x="40.08" y="1.67" class="k">current</text><text x="48.096" y="1.67" class="k">otoroshi</text><text x="57.114" y="1.67" class="k">cluster</text></symbol><symbol id="21"><text x="2.004" y="1.67" class="m">config</text><text x="17.034" y="1.67" class="k">Manage</text><text x="24.048" y="1.67" class="k">all</text><text x="28.056" y="1.67" class="k">the</text><text x="32.064" y="1.67" class="k">otoroshi</text><text x="41.082" y="1.67" class="k">cluster</text><text x="49.098" y="1.67" class="k">configurations</text><text x="64.128" y="1.67" class="k">you</text><text x="68.136" y="1.67" class="k">want</text><text x="73.146" y="1.67" class="k">to</text><text x="76.152" y="1.67" class="k">connect</text><text x="84.168" y="1.67" class="k">to</text><text x="87.174" y="1.67" class="k">with</text><text x="92.184" y="1.67" class="k">otoroshictl</text></symbol><symbol id="22"><text x="2.004" y="1.67" class="m">help</text><text x="17.034" y="1.67" class="k">Print</text><text x="23.046" y="1.67" class="k">this</text><text x="28.056" y="1.67" class="k">message</text><text x="36.072" y="1.67" class="k">or</text><text x="39.078" y="1.67" class="k">the</text><text x="43.086" y="1.67" class="k">help</text><text x="48.096" y="1.67" class="k">of</text><text x="51.102" y="1.67" class="k">the</text><text x="55.11" y="1.67" class="k">given</text><text x="61.122" y="1.67" class="k">subcommand(s)</text></symbol><symbol id="23"><text y="1.67" class="l">Options:</text></symbol><symbol id="24"><text x="2.004" y="1.67" class="m">-v</text><text x="4.008" y="1.67" class="k">,</text><text x="6.012" y="1.67" class="m">--verbose</text></symbol><symbol id="25"><text x="10.02" y="1.67" class="k">Turn</text><text x="15.03" y="1.67" class="k">debugging</text><text x="25.05" y="1.67" class="k">information</text><text x="37.074" y="1.67" class="k">on</text></symbol><symbol id="26"><text x="2.004" y="1.67" class="m">-o</text><text x="4.008" y="1.67" class="k">,</text><text x="6.012" y="1.67" class="m">--ouput</text><text x="14.028" y="1.67" class="k">&lt;FORMAT&gt;</text></symbol><symbol id="27"><text x="10.02" y="1.67" class="k">Change</text><text x="17.034" y="1.67" class="k">the</text><text x="21.042" y="1.67" class="k">rendering</text><text x="31.062" y="1.67" class="k">format</text><text x="38.076" y="1.67" class="k">(can</text><text x="43.086" y="1.67" class="k">be</text><text x="46.092" y="1.67" class="k">one</text><text x="50.1" y="1.67" class="k">of:</text><text x="54.108" y="1.67" class="k">json,</text><text x="60.12" y="1.67" class="k">yaml,</text><text x="66.132" y="1.67" class="k">json_pretty)</text></symbol><symbol id="28"><text x="2.004" y="1.67" class="m">-c</text><text x="4.008" y="1.67" class="k">,</text><text x="6.012" y="1.67" class="m">--config-file</text><text x="20.04" y="1.67" class="k">&lt;FILE</text><text x="26.052" y="1.67" class="k">or</text><text x="29.058" y="1.67" class="k">URL&gt;</text></symbol><symbol id="29"><text x="10.02" y="1.67" class="k">Sets</text><text x="15.03" y="1.67" class="k">a</text><text x="17.034" y="1.67" class="k">custom</text><text x="24.048" y="1.67" class="k">config</text><text x="31.062" y="1.67" class="k">file</text></symbol><symbol id="30"><text x="6.012" y="1.67" class="m">--otoroshi-cluster-tls</text></symbol><symbol id="31"><text x="10.02" y="1.67" class="k">Sets</text><text x="15.03" y="1.67" class="k">the</text><text x="19.038" y="1.67" class="k">tls</text><text x="23.046" y="1.67" class="k">flag</text><text x="28.056" y="1.67" class="k">to</text><text x="31.062" y="1.67" class="k">connect</text><text x="39.078" y="1.67" class="k">to</text><text x="42.084" y="1.67" class="k">a</text><text x="44.088" y="1.67" class="k">custom</text><text x="51.102" y="1.67" class="k">otoroshi</text><text x="60.12" y="1.67" class="k">cluster</text><text x="68.136" y="1.67" class="k">without</text><text x="76.152" y="1.67" class="k">using</text><text x="82.164" y="1.67" class="k">a</text><text x="84.168" y="1.67" class="k">config</text><text x="91.182" y="1.67" class="k">file</text></symbol><symbol id="32"><text x="6.012" y="1.67" class="m">--otoroshi-cluster-hostname</text><text x="34.068" y="1.67" class="k">&lt;HOSTNAME&gt;</text></symbol><symbol id="33"><text x="10.02" y="1.67" class="k">Sets</text><text x="15.03" y="1.67" class="k">the</text><text x="19.038" y="1.67" class="k">hostname</text><text x="28.056" y="1.67" class="k">to</text><text x="31.062" y="1.67" class="k">connect</text><text x="39.078" y="1.67" class="k">to</text><text x="42.084" y="1.67" class="k">a</text><text x="44.088" y="1.67" class="k">custom</text><text x="51.102" y="1.67" class="k">otoroshi</text><text x="60.12" y="1.67" class="k">cluster</text><text x="68.136" y="1.67" class="k">without</text><text x="76.152" y="1.67" class="k">using</text><text x="82.164" y="1.67" class="k">a</text><text x="84.168" y="1.67" class="k">config</text><text x="91.182" y="1.67" class="k">file</text></symbol><symbol id="34"><text x="6.012" y="1.67" class="m">--otoroshi-cluster-port</text><text x="30.06" y="1.67" class="k">&lt;PORT&gt;</text></symbol><symbol id="35"><text x="10.02" y="1.67" class="k">Sets</text><text x="15.03" y="1.67" class="k">the</text><text x="19.038" y="1.67" class="k">port</text><text x="24.048" y="1.67" class="k">to</text><text x="27.054" y="1.67" class="k">connect</text><text x="35.07" y="1.67" class="k">to</text><text x="38.076" y="1.67" class="k">a</text><text x="40.08" y="1.67" class="k">custom</text><text x="47.094" y="1.67" class="k">otoroshi</text><text x="56.112" y="1.67" class="k">cluster</text><text x="64.128" y="1.67" class="k">without</text><text x="72.144" y="1.67" class="k">using</text><text x="78.156" y="1.67" class="k">a</text><text x="80.16" y="1.67" class="k">config</text><text x="87.174" y="1.67" class="k">file</text></symbol><symbol id="36"><text x="6.012" y="1.67" class="m">--otoroshi-cluster-routing-tls</text></symbol><symbol id="37"><text x="6.012" y="1.67" class="m">--otoroshi-cluster-routing-hostname</text><text x="42.084" y="1.67" class="k">&lt;HOSTNAME&gt;</text></symbol><symbol id="38"><text x="6.012" y="1.67" class="m">--otoroshi-cluster-routing-port</text><text x="38.076" y="1.67" class="k">&lt;PORT&gt;</text></symbol><symbol id="39"><text x="6.012" y="1.67" class="m">--otoroshi-user-client-id</text><text x="32.064" y="1.67" class="k">&lt;CLIENT_ID&gt;</text></symbol><symbol id="40"><text x="10.02" y="1.67" class="k">Sets</text><text x="15.03" y="1.67" class="k">the</text><text x="19.038" y="1.67" class="k">client_id</text><text x="29.058" y="1.67" class="k">to</text><text x="32.064" y="1.67" class="k">connect</text><text x="40.08" y="1.67" class="k">to</text><text x="43.086" y="1.67" class="k">a</text><text x="45.09" y="1.67" class="k">custom</text><text x="52.104" y="1.67" class="k">otoroshi</text><text x="61.122" y="1.67" class="k">cluster</text><text x="69.138" y="1.67" class="k">without</text><text x="77.154" y="1.67" class="k">using</text><text x="83.166" y="1.67" class="k">a</text><text x="85.17" y="1.67" class="k">config</text><text x="92.184" y="1.67" class="k">file</text></symbol><symbol id="41"><text x="6.012" y="1.67" class="m">--otoroshi-user-client-secret</text><text x="36.072" y="1.67" class="k">&lt;CLIENT_SECRET&gt;</text></symbol><symbol id="42"><text x="10.02" y="1.67" class="k">Sets</text><text x="15.03" y="1.67" class="k">the</text><text x="19.038" y="1.67" class="k">client_secret</text><text x="33.066" y="1.67" class="k">to</text><text x="36.072" y="1.67" class="k">connect</text><text x="44.088" y="1.67" class="k">to</text><text x="47.094" y="1.67" class="k">a</text><text x="49.098" y="1.67" class="k">custom</text><text x="56.112" y="1.67" class="k">otoroshi</text><text x="65.13" y="1.67" class="k">cluster</text><text x="73.146" y="1.67" class="k">without</text><text x="81.162" y="1.67" class="k">using</text><text x="87.174" y="1.67" class="k">a</text><text x="89.178" y="1.67" class="k">config</text><text x="96.192" y="1.67" class="k">file</text></symbol><symbol id="43"><text x="6.012" y="1.67" class="m">--otoroshi-user-health-key</text><text x="33.066" y="1.67" class="k">&lt;HEALTH_KEY&gt;</text></symbol><symbol id="44"><text x="10.02" y="1.67" class="k">Sets</text><text x="15.03" y="1.67" class="k">the</text><text x="19.038" y="1.67" class="k">health_key</text><text x="30.06" y="1.67" class="k">to</text><text x="33.066" y="1.67" class="k">connect</text><text x="41.082" y="1.67" class="k">to</text><text x="44.088" y="1.67" class="k">a</text><text x="46.092" y="1.67" class="k">custom</text><text x="53.106" y="1.67" class="k">otoroshi</text><text x="62.124" y="1.67" class="k">cluster</text><text x="70.14" y="1.67" class="k">without</text><text x="78.156" y="1.67" class="k">using</text><text x="84.168" y="1.67" class="k">a</text><text x="86.172" y="1.67" class="k">config</text><text x="93.186" y="1.67" class="k">file</text></symbol><symbol id="45"><text x="6.012" y="1.67" class="m">--otoroshi-cluster-cert-location</text><text x="39.078" y="1.67" class="k">&lt;FILE&gt;</text></symbol><symbol id="46"><text x="10.02" y="1.67" class="k">Sets</text><text x="15.03" y="1.67" class="k">the</text><text x="19.038" y="1.67" class="k">client</text><text x="26.052" y="1.67" class="k">cert</text><text x="31.062" y="1.67" class="k">location</text><text x="40.08" y="1.67" class="k">to</text><text x="43.086" y="1.67" class="k">connect</text><text x="51.102" y="1.67" class="k">to</text><text x="54.108" y="1.67" class="k">a</text><text x="56.112" y="1.67" class="k">custom</text><text x="63.126" y="1.67" class="k">otoroshi</text><text x="72.144" y="1.67" class="k">cluster</text><text x="80.16" y="1.67" class="k">without</text><text x="88.176" y="1.67" class="k">using</text><text x="94.188" y="1.67" class="k">a</text><text x="96.192" y="1.67" class="k">config</text><text x="103.206" y="1.67" class="k">file</text></symbol><symbol id="47"><text x="6.012" y="1.67" class="m">--otoroshi-cluster-key-location</text><text x="38.076" y="1.67" class="k">&lt;FILE&gt;</text></symbol><symbol id="48"><text x="10.02" y="1.67" class="k">Sets</text><text x="15.03" y="1.67" class="k">the</text><text x="19.038" y="1.67" class="k">client</text><text x="26.052" y="1.67" class="k">cert</text><text x="31.062" y="1.67" class="k">key</text><text x="35.07" y="1.67" class="k">location</text><text x="44.088" y="1.67" class="k">to</text><text x="47.094" y="1.67" class="k">connect</text><text x="55.11" y="1.67" class="k">to</text><text x="58.116" y="1.67" class="k">a</text><text x="60.12" y="1.67" class="k">custom</text><text x="67.134" y="1.67" class="k">otoroshi</text><text x="76.152" y="1.67" class="k">cluster</text><text x="84.168" y="1.67" class="k">without</text><text x="92.184" y="1.67" class="k">using</text><text x="98.196" y="1.67" class="k">a</text><text x="100.2" y="1.67" class="k">config</text><text x="107.214" y="1.67" class="k">file</text></symbol><symbol id="49"><text x="6.012" y="1.67" class="m">--otoroshi-cluster-ca-location</text><text x="37.074" y="1.67" class="k">&lt;FILE&gt;</text></symbol><symbol id="50"><text x="10.02" y="1.67" class="k">Sets</text><text x="15.03" y="1.67" class="k">the</text><text x="19.038" y="1.67" class="k">client</text><text x="26.052" y="1.67" class="k">cert</text><text x="31.062" y="1.67" class="k">ca</text><text x="34.068" y="1.67" class="k">location</text><text x="43.086" y="1.67" class="k">to</text><text x="46.092" y="1.67" class="k">connect</text><text x="54.108" y="1.67" class="k">to</text><text x="57.114" y="1.67" class="k">a</text><text x="59.118" y="1.67" class="k">custom</text><text x="66.132" y="1.67" class="k">otoroshi</text><text x="75.15" y="1.67" class="k">cluster</text><text x="83.166" y="1.67" class="k">without</text><text x="91.182" y="1.67" class="k">using</text><text x="97.194" y="1.67" class="k">a</text><text x="99.198" y="1.67" class="k">config</text><text x="106.212" y="1.67" class="k">file</text></symbol><symbol id="51"><text x="2.004" y="1.67" class="m">-h</text><text x="4.008" y="1.67" class="k">,</text><text x="6.012" y="1.67" class="m">--help</text></symbol><symbol id="52"><text x="10.02" y="1.67" class="k">Print</text><text x="16.032" y="1.67" class="k">help</text></symbol><symbol id="53"><text x="2.004" y="1.67" class="m">-V</text><text x="4.008" y="1.67" class="k">,</text><text x="6.012" y="1.67" class="m">--version</text></symbol><symbol id="54"><text x="10.02" y="1.67" class="k">Print</text><text x="16.032" y="1.67" class="k">version</text></symbol><symbol id="a"><path fill="transparent" d="M0 0h137v97H0z"/></symbol><symbol id="b"><path fill="#6f7683" d="M0 0h1.102v2.171H0z"/></symbol></defs><path class="a" d="M0 0h137v208.416H0z"/><g style="animation-duration:5.947251s;animation-iteration-count:infinite;animation-name:p;animation-timing-function:steps(1,end)"><svg width="3836"><svg><use xlink:href="#a"/><use xlink:href="#b" x="-.004"/></svg><svg x="137"><use xlink:href="#a"/><use xlink:href="#b" x="-.004"/></svg><svg x="274"><use xlink:href="#a"/><use xlink:href="#b" x="-.004"/></svg><svg x="411"><use xlink:href="#a"/><use xlink:href="#b" x="-.004"/></svg><svg x="548"><use xlink:href="#a"/><use xlink:href="#b" x="27.996"/><use xlink:href="#1"/></svg><svg x="685"><use xlink:href="#a"/><use xlink:href="#b" x="27.996"/><use xlink:href="#1"/></svg><svg x="822"><use xlink:href="#a"/><use xlink:href="#b" x="28.996"/><text y="1.67" class="f">➜</text><text x="3.006" y="1.67" class="g">otoroshictl</text><text x="15.03" y="1.67" class="h">git:(</text><text x="20.04" y="1.67" class="i">main</text><text x="24.048" y="1.67" class="h">)</text><text x="26.052" y="1.67" class="j">✗</text><text x="28.056" y="1.67" class="k">o</text></svg><svg x="959"><use xlink:href="#a"/><use xlink:href="#b" x="29.996"/><text y="1.67" class="f">➜</text><text x="3.006" y="1.67" class="g">otoroshictl</text><text x="15.03" y="1.67" class="h">git:(</text><text x="20.04" y="1.67" class="i">main</text><text x="24.048" y="1.67" class="h">)</text><text x="26.052" y="1.67" class="j">✗</text><text x="28.056" y="1.67" class="k">ot</text></svg><svg x="1096"><use xlink:href="#a"/><use xlink:href="#b" x="30.996"/><text y="1.67" class="f">➜</text><text x="3.006" y="1.67" class="g">otoroshictl</text><text x="15.03" y="1.67" class="h">git:(</text><text x="20.04" y="1.67" class="i">main</text><text x="24.048" y="1.67" class="h">)</text><text x="26.052" y="1.67" class="j">✗</text><text x="28.056" y="1.67" class="k">oto</text></svg><svg x="1233"><use xlink:href="#a"/><use xlink:href="#b" x="31.996"/><text y="1.67" class="f">➜</text><text x="3.006" y="1.67" class="g">otoroshictl</text><text x="15.03" y="1.67" class="h">git:(</text><text x="20.04" y="1.67" class="i">main</text><text x="24.048" y="1.67" class="h">)</text><text x="26.052" y="1.67" class="j">✗</text><text x="28.056" y="1.67" class="k">otor</text></svg><svg x="1370"><use xlink:href="#a"/><use xlink:href="#b" x="38.996"/><use xlink:href="#2"/></svg><svg x="1507"><use xlink:href="#a"/><use xlink:href="#b" x="39.996"/><use xlink:href="#2"/></svg><svg x="1644"><use xlink:href="#a"/><use xlink:href="#b" x="40.996"/><text y="1.67" class="f">➜</text><text x="3.006" y="1.67" class="g">otoroshictl</text><text x="15.03" y="1.67" class="h">git:(</text><text x="20.04" y="1.67" class="i">main</text><text x="24.048" y="1.67" class="h">)</text><text x="26.052" y="1.67" class="j">✗</text><text x="28.056" y="1.67" class="k">otoroshictl</text><text x="40.08" y="1.67" class="k">-</text></svg><svg x="1781"><use xlink:href="#a"/><use xlink:href="#b" x="41.996"/><use xlink:href="#3"/></svg><svg x="1918"><use xlink:href="#a"/><use xlink:href="#b" x="41.996"/><use xlink:href="#3"/></svg><svg x="2055"><use xlink:href="#a"/><use xlink:href="#b" x="-.004" y="2.146"/><use xlink:href="#3"/></svg><svg x="2192"><use xlink:href="#a"/><use xlink:href="#b" x="-.004" y="2.146"/><use xlink:href="#3"/></svg><svg x="2329"><use xlink:href="#a"/><use xlink:href="#b" x="4.996" y="34.711"/><use xlink:href="#3"/><use xlink:href="#4" y="2.171"/><use xlink:href="#5" y="6.513"/><use xlink:href="#6" y="8.684"/><use xlink:href="#7" y="13.026"/><use xlink:href="#8" y="15.197"/><use xlink:href="#9" y="19.539"/><use xlink:href="#10" y="23.881"/><use xlink:href="#11" y="26.052"/><use xlink:href="#12" y="28.223"/><use xlink:href="#13" y="30.394"/><use xlink:href="#14" y="32.565"/><text x="2.004" y="36.406" class="m">rem</text></svg><svg x="2466"><use xlink:href="#a"/><use xlink:href="#b" x="32.996" y="67.276"/><use xlink:href="#3"/><use xlink:href="#4" y="2.171"/><use xlink:href="#5" y="6.513"/><use xlink:href="#6" y="8.684"/><use xlink:href="#7" y="13.026"/><use xlink:href="#8" y="15.197"/><use xlink:href="#9" y="19.539"/><use xlink:href="#10" y="23.881"/><use xlink:href="#11" y="26.052"/><use xlink:href="#12" y="28.223"/><use xlink:href="#13" y="30.394"/><use xlink:href="#14" y="32.565"/><use xlink:href="#15" y="34.736"/><use xlink:href="#16" y="36.907"/><use xlink:href="#17" y="39.078"/><use xlink:href="#18" y="41.249"/><use xlink:href="#19" y="43.42"/><use xlink:href="#20" y="45.591"/><use xlink:href="#21" y="47.762"/><use xlink:href="#22" y="49.933"/><use xlink:href="#23" y="54.275"/><use xlink:href="#24" y="56.446"/><use xlink:href="#25" y="58.617"/><use xlink:href="#26" y="60.788"/><use xlink:href="#27" y="62.959"/><use xlink:href="#28" y="65.13"/><text x="10.02" y="68.971" class="k">Sets</text><text x="15.03" y="68.971" class="k">a</text><text x="17.034" y="68.971" class="k">custom</text><text x="24.048" y="68.971" class="k">config</text><text x="31.062" y="68.971" class="k">fi</text></svg><svg x="2603"><use xlink:href="#a"/><use xlink:href="#b" x="92.996" y="97.67"/><use xlink:href="#3"/><use xlink:href="#4" y="2.171"/><use xlink:href="#5" y="6.513"/><use xlink:href="#6" y="8.684"/><use xlink:href="#7" y="13.026"/><use xlink:href="#8" y="15.197"/><use xlink:href="#9" y="19.539"/><use xlink:href="#10" y="23.881"/><use xlink:href="#11" y="26.052"/><use xlink:href="#12" y="28.223"/><use xlink:href="#13" y="30.394"/><use xlink:href="#14" y="32.565"/><use xlink:href="#15" y="34.736"/><use xlink:href="#16" y="36.907"/><use xlink:href="#17" y="39.078"/><use xlink:href="#18" y="41.249"/><use xlink:href="#19" y="43.42"/><use xlink:href="#20" y="45.591"/><use xlink:href="#21" y="47.762"/><use xlink:href="#22" y="49.933"/><use xlink:href="#23" y="54.275"/><use xlink:href="#24" y="56.446"/><use xlink:href="#25" y="58.617"/><use xlink:href="#26" y="60.788"/><use xlink:href="#27" y="62.959"/><use xlink:href="#28" y="65.13"/><use xlink:href="#29" y="67.301"/><use xlink:href="#30" y="69.472"/><use xlink:href="#31" y="71.643"/><use xlink:href="#32" y="73.814"/><use xlink:href="#33" y="75.985"/><use xlink:href="#34" y="78.156"/><use xlink:href="#35" y="80.327"/><use xlink:href="#36" y="82.498"/><use xlink:href="#31" y="84.669"/><use xlink:href="#37" y="86.84"/><use xlink:href="#33" y="89.011"/><use xlink:href="#38" y="91.182"/><use xlink:href="#35" y="93.353"/><use xlink:href="#39" y="95.524"/><text x="10.02" y="99.365" class="k">Sets</text><text x="15.03" y="99.365" class="k">the</text><text x="19.038" y="99.365" class="k">client_id</text><text x="29.058" y="99.365" class="k">to</text><text x="32.064" y="99.365" class="k">connect</text><text x="40.08" y="99.365" class="k">to</text><text x="43.086" y="99.365" class="k">a</text><text x="45.09" y="99.365" class="k">custom</text><text x="52.104" y="99.365" class="k">otoroshi</text><text x="61.122" y="99.365" class="k">cluster</text><text x="69.138" y="99.365" class="k">without</text><text x="77.154" y="99.365" class="k">using</text><text x="83.166" y="99.365" class="k">a</text><text x="85.17" y="99.365" class="k">config</text><text x="92.184" y="99.365" class="k">f</text></svg><svg x="2740"><use xlink:href="#a"/><use xlink:href="#b" x="-.004" y="130.235"/><use xlink:href="#3"/><use xlink:href="#4" y="2.171"/><use xlink:href="#5" y="6.513"/><use xlink:href="#6" y="8.684"/><use xlink:href="#7" y="13.026"/><use xlink:href="#8" y="15.197"/><use xlink:href="#9" y="19.539"/><use xlink:href="#10" y="23.881"/><use xlink:href="#11" y="26.052"/><use xlink:href="#12" y="28.223"/><use xlink:href="#13" y="30.394"/><use xlink:href="#14" y="32.565"/><use xlink:href="#15" y="34.736"/><use xlink:href="#16" y="36.907"/><use xlink:href="#17" y="39.078"/><use xlink:href="#18" y="41.249"/><use xlink:href="#19" y="43.42"/><use xlink:href="#20" y="45.591"/><use xlink:href="#21" y="47.762"/><use xlink:href="#22" y="49.933"/><use xlink:href="#23" y="54.275"/><use xlink:href="#24" y="56.446"/><use xlink:href="#25" y="58.617"/><use xlink:href="#26" y="60.788"/><use xlink:href="#27" y="62.959"/><use xlink:href="#28" y="65.13"/><use xlink:href="#29" y="67.301"/><use xlink:href="#30" y="69.472"/><use xlink:href="#31" y="71.643"/><use xlink:href="#32" y="73.814"/><use xlink:href="#33" y="75.985"/><use xlink:href="#34" y="78.156"/><use xlink:href="#35" y="80.327"/><use xlink:href="#36" y="82.498"/><use xlink:href="#31" y="84.669"/><use xlink:href="#37" y="86.84"/><use xlink:href="#33" y="89.011"/><use xlink:href="#38" y="91.182"/><use xlink:href="#35" y="93.353"/><use xlink:href="#39" y="95.524"/><use xlink:href="#40" y="97.695"/><use xlink:href="#41" y="99.866"/><use xlink:href="#42" y="102.037"/><use xlink:href="#43" y="104.208"/><use xlink:href="#44" y="106.379"/><use xlink:href="#45" y="108.55"/><use xlink:href="#46" y="110.721"/><use xlink:href="#47" y="112.892"/><use xlink:href="#48" y="115.063"/><use xlink:href="#49" y="117.234"/><use xlink:href="#50" y="119.405"/><use xlink:href="#51" y="121.576"/><use xlink:href="#52" y="123.747"/><use xlink:href="#53" y="125.918"/><use xlink:href="#54" y="128.089"/></svg><svg x="2877"><use xlink:href="#a"/><use xlink:href="#b" x="-.004" y="130.235"/><use xlink:href="#3"/><use xlink:href="#4" y="2.171"/><use xlink:href="#5" y="6.513"/><use xlink:href="#6" y="8.684"/><use xlink:href="#7" y="13.026"/><use xlink:href="#8" y="15.197"/><use xlink:href="#9" y="19.539"/><use xlink:href="#10" y="23.881"/><use xlink:href="#11" y="26.052"/><use xlink:href="#12" y="28.223"/><use xlink:href="#13" y="30.394"/><use xlink:href="#14" y="32.565"/><use xlink:href="#15" y="34.736"/><use xlink:href="#16" y="36.907"/><use xlink:href="#17" y="39.078"/><use xlink:href="#18" y="41.249"/><use xlink:href="#19" y="43.42"/><use xlink:href="#20" y="45.591"/><use xlink:href="#21" y="47.762"/><use xlink:href="#22" y="49.933"/><use xlink:href="#23" y="54.275"/><use xlink:href="#24" y="56.446"/><use xlink:href="#25" y="58.617"/><use xlink:href="#26" y="60.788"/><use xlink:href="#27" y="62.959"/><use xlink:href="#28" y="65.13"/><use xlink:href="#29" y="67.301"/><use xlink:href="#30" y="69.472"/><use xlink:href="#31" y="71.643"/><use xlink:href="#32" y="73.814"/><use xlink:href="#33" y="75.985"/><use xlink:href="#34" y="78.156"/><use xlink:href="#35" y="80.327"/><use xlink:href="#36" y="82.498"/><use xlink:href="#31" y="84.669"/><use xlink:href="#37" y="86.84"/><use xlink:href="#33" y="89.011"/><use xlink:href="#38" y="91.182"/><use xlink:href="#35" y="93.353"/><use xlink:href="#39" y="95.524"/><use xlink:href="#40" y="97.695"/><use xlink:href="#41" y="99.866"/><use xlink:href="#42" y="102.037"/><use xlink:href="#43" y="104.208"/><use xlink:href="#44" y="106.379"/><use xlink:href="#45" y="108.55"/><use xlink:href="#46" y="110.721"/><use xlink:href="#47" y="112.892"/><use xlink:href="#48" y="115.063"/><use xlink:href="#49" y="117.234"/><use xlink:href="#50" y="119.405"/><use xlink:href="#51" y="121.576"/><use xlink:href="#52" y="123.747"/><use xlink:href="#53" y="125.918"/><use xlink:href="#54" y="128.089"/></svg><svg x="3014"><use xlink:href="#a"/><use xlink:href="#b" x="-.004" y="130.235"/><use xlink:href="#3"/><use xlink:href="#4" y="2.171"/><use xlink:href="#5" y="6.513"/><use xlink:href="#6" y="8.684"/><use xlink:href="#7" y="13.026"/><use xlink:href="#8" y="15.197"/><use xlink:href="#9" y="19.539"/><use xlink:href="#10" y="23.881"/><use xlink:href="#11" y="26.052"/><use xlink:href="#12" y="28.223"/><use xlink:href="#13" y="30.394"/><use xlink:href="#14" y="32.565"/><use xlink:href="#15" y="34.736"/><use xlink:href="#16" y="36.907"/><use xlink:href="#17" y="39.078"/><use xlink:href="#18" y="41.249"/><use xlink:href="#19" y="43.42"/><use xlink:href="#20" y="45.591"/><use xlink:href="#21" y="47.762"/><use xlink:href="#22" y="49.933"/><use xlink:href="#23" y="54.275"/><use xlink:href="#24" y="56.446"/><use xlink:href="#25" y="58.617"/><use xlink:href="#26" y="60.788"/><use xlink:href="#27" y="62.959"/><use xlink:href="#28" y="65.13"/><use xlink:href="#29" y="67.301"/><use xlink:href="#30" y="69.472"/><use xlink:href="#31" y="71.643"/><use xlink:href="#32" y="73.814"/><use xlink:href="#33" y="75.985"/><use xlink:href="#34" y="78.156"/><use xlink:href="#35" y="80.327"/><use xlink:href="#36" y="82.498"/><use xlink:href="#31" y="84.669"/><use xlink:href="#37" y="86.84"/><use xlink:href="#33" y="89.011"/><use xlink:href="#38" y="91.182"/><use xlink:href="#35" y="93.353"/><use xlink:href="#39" y="95.524"/><use xlink:href="#40" y="97.695"/><use xlink:href="#41" y="99.866"/><use xlink:href="#42" y="102.037"/><use xlink:href="#43" y="104.208"/><use xlink:href="#44" y="106.379"/><use xlink:href="#45" y="108.55"/><use xlink:href="#46" y="110.721"/><use xlink:href="#47" y="112.892"/><use xlink:href="#48" y="115.063"/><use xlink:href="#49" y="117.234"/><use xlink:href="#50" y="119.405"/><use xlink:href="#51" y="121.576"/><use xlink:href="#52" y="123.747"/><use xlink:href="#53" y="125.918"/><use xlink:href="#54" y="128.089"/></svg><svg x="3151"><use xlink:href="#a"/><use xlink:href="#b" x="-.004" y="130.235"/><use xlink:href="#3"/><use xlink:href="#4" y="2.171"/><use xlink:href="#5" y="6.513"/><use xlink:href="#6" y="8.684"/><use xlink:href="#7" y="13.026"/><use xlink:href="#8" y="15.197"/><use xlink:href="#9" y="19.539"/><use xlink:href="#10" y="23.881"/><use xlink:href="#11" y="26.052"/><use xlink:href="#12" y="28.223"/><use xlink:href="#13" y="30.394"/><use xlink:href="#14" y="32.565"/><use xlink:href="#15" y="34.736"/><use xlink:href="#16" y="36.907"/><use xlink:href="#17" y="39.078"/><use xlink:href="#18" y="41.249"/><use xlink:href="#19" y="43.42"/><use xlink:href="#20" y="45.591"/><use xlink:href="#21" y="47.762"/><use xlink:href="#22" y="49.933"/><use xlink:href="#23" y="54.275"/><use xlink:href="#24" y="56.446"/><use xlink:href="#25" y="58.617"/><use xlink:href="#26" y="60.788"/><use xlink:href="#27" y="62.959"/><use xlink:href="#28" y="65.13"/><use xlink:href="#29" y="67.301"/><use xlink:href="#30" y="69.472"/><use xlink:href="#31" y="71.643"/><use xlink:href="#32" y="73.814"/><use xlink:href="#33" y="75.985"/><use xlink:href="#34" y="78.156"/><use xlink:href="#35" y="80.327"/><use xlink:href="#36" y="82.498"/><use xlink:href="#31" y="84.669"/><use xlink:href="#37" y="86.84"/><use xlink:href="#33" y="89.011"/><use xlink:href="#38" y="91.182"/><use xlink:href="#35" y="93.353"/><use xlink:href="#39" y="95.524"/><use xlink:href="#40" y="97.695"/><use xlink:href="#41" y="99.866"/><use xlink:href="#42" y="102.037"/><use xlink:href="#43" y="104.208"/><use xlink:href="#44" y="106.379"/><use xlink:href="#45" y="108.55"/><use xlink:href="#46" y="110.721"/><use xlink:href="#47" y="112.892"/><use xlink:href="#48" y="115.063"/><use xlink:href="#49" y="117.234"/><use xlink:href="#50" y="119.405"/><use xlink:href="#51" y="121.576"/><use xlink:href="#52" y="123.747"/><use xlink:href="#53" y="125.918"/><use xlink:href="#54" y="128.089"/></svg><svg x="3288"><use xlink:href="#a"/><use xlink:href="#b" x="-.004" y="130.235"/><use xlink:href="#3"/><use xlink:href="#4" y="2.171"/><use xlink:href="#5" y="6.513"/><use xlink:href="#6" y="8.684"/><use xlink:href="#7" y="13.026"/><use xlink:href="#8" y="15.197"/><use xlink:href="#9" y="19.539"/><use xlink:href="#10" y="23.881"/><use xlink:href="#11" y="26.052"/><use xlink:href="#12" y="28.223"/><use xlink:href="#13" y="30.394"/><use xlink:href="#14" y="32.565"/><use xlink:href="#15" y="34.736"/><use xlink:href="#16" y="36.907"/><use xlink:href="#17" y="39.078"/><use xlink:href="#18" y="41.249"/><use xlink:href="#19" y="43.42"/><use xlink:href="#20" y="45.591"/><use xlink:href="#21" y="47.762"/><use xlink:href="#22" y="49.933"/><use xlink:href="#23" y="54.275"/><use xlink:href="#24" y="56.446"/><use xlink:href="#25" y="58.617"/><use xlink:href="#26" y="60.788"/><use xlink:href="#27" y="62.959"/><use xlink:href="#28" y="65.13"/><use xlink:href="#29" y="67.301"/><use xlink:href="#30" y="69.472"/><use xlink:href="#31" y="71.643"/><use xlink:href="#32" y="73.814"/><use xlink:href="#33" y="75.985"/><use xlink:href="#34" y="78.156"/><use xlink:href="#35" y="80.327"/><use xlink:href="#36" y="82.498"/><use xlink:href="#31" y="84.669"/><use xlink:href="#37" y="86.84"/><use xlink:href="#33" y="89.011"/><use xlink:href="#38" y="91.182"/><use xlink:href="#35" y="93.353"/><use xlink:href="#39" y="95.524"/><use xlink:href="#40" y="97.695"/><use xlink:href="#41" y="99.866"/><use xlink:href="#42" y="102.037"/><use xlink:href="#43" y="104.208"/><use xlink:href="#44" y="106.379"/><use xlink:href="#45" y="108.55"/><use xlink:href="#46" y="110.721"/><use xlink:href="#47" y="112.892"/><use xlink:href="#48" y="115.063"/><use xlink:href="#49" y="117.234"/><use xlink:href="#50" y="119.405"/><use xlink:href="#51" y="121.576"/><use xlink:href="#52" y="123.747"/><use xlink:href="#53" y="125.918"/><use xlink:href="#54" y="128.089"/></svg><svg x="3425"><use xlink:href="#a"/><use xlink:href="#b" x="27.996" y="130.235"/><use xlink:href="#3"/><use xlink:href="#4" y="2.171"/><use xlink:href="#5" y="6.513"/><use xlink:href="#6" y="8.684"/><use xlink:href="#7" y="13.026"/><use xlink:href="#8" y="15.197"/><use xlink:href="#9" y="19.539"/><use xlink:href="#10" y="23.881"/><use xlink:href="#11" y="26.052"/><use xlink:href="#12" y="28.223"/><use xlink:href="#13" y="30.394"/><use xlink:href="#14" y="32.565"/><use xlink:href="#15" y="34.736"/><use xlink:href="#16" y="36.907"/><use xlink:href="#17" y="39.078"/><use xlink:href="#18" y="41.249"/><use xlink:href="#19" y="43.42"/><use xlink:href="#20" y="45.591"/><use xlink:href="#21" y="47.762"/><use xlink:href="#22" y="49.933"/><use xlink:href="#23" y="54.275"/><use xlink:href="#24" y="56.446"/><use xlink:href="#25" y="58.617"/><use xlink:href="#26" y="60.788"/><use xlink:href="#27" y="62.959"/><use xlink:href="#28" y="65.13"/><use xlink:href="#29" y="67.301"/><use xlink:href="#30" y="69.472"/><use xlink:href="#31" y="71.643"/><use xlink:href="#32" y="73.814"/><use xlink:href="#33" y="75.985"/><use xlink:href="#34" y="78.156"/><use xlink:href="#35" y="80.327"/><use xlink:href="#36" y="82.498"/><use xlink:href="#31" y="84.669"/><use xlink:href="#37" y="86.84"/><use xlink:href="#33" y="89.011"/><use xlink:href="#38" y="91.182"/><use xlink:href="#35" y="93.353"/><use xlink:href="#39" y="95.524"/><use xlink:href="#40" y="97.695"/><use xlink:href="#41" y="99.866"/><use xlink:href="#42" y="102.037"/><use xlink:href="#43" y="104.208"/><use xlink:href="#44" y="106.379"/><use xlink:href="#45" y="108.55"/><use xlink:href="#46" y="110.721"/><use xlink:href="#47" y="112.892"/><use xlink:href="#48" y="115.063"/><use xlink:href="#49" y="117.234"/><use xlink:href="#50" y="119.405"/><use xlink:href="#51" y="121.576"/><use xlink:href="#52" y="123.747"/><use xlink:href="#53" y="125.918"/><use xlink:href="#54" y="128.089"/><use xlink:href="#1" y="130.26"/></svg><svg x="3562"><use xlink:href="#a"/><use xlink:href="#b" x="27.996" y="130.235"/><use xlink:href="#3"/><use xlink:href="#4" y="2.171"/><use xlink:href="#5" y="6.513"/><use xlink:href="#6" y="8.684"/><use xlink:href="#7" y="13.026"/><use xlink:href="#8" y="15.197"/><use xlink:href="#9" y="19.539"/><use xlink:href="#10" y="23.881"/><use xlink:href="#11" y="26.052"/><use xlink:href="#12" y="28.223"/><use xlink:href="#13" y="30.394"/><use xlink:href="#14" y="32.565"/><use xlink:href="#15" y="34.736"/><use xlink:href="#16" y="36.907"/><use xlink:href="#17" y="39.078"/><use xlink:href="#18" y="41.249"/><use xlink:href="#19" y="43.42"/><use xlink:href="#20" y="45.591"/><use xlink:href="#21" y="47.762"/><use xlink:href="#22" y="49.933"/><use xlink:href="#23" y="54.275"/><use xlink:href="#24" y="56.446"/><use xlink:href="#25" y="58.617"/><use xlink:href="#26" y="60.788"/><use xlink:href="#27" y="62.959"/><use xlink:href="#28" y="65.13"/><use xlink:href="#29" y="67.301"/><use xlink:href="#30" y="69.472"/><use xlink:href="#31" y="71.643"/><use xlink:href="#32" y="73.814"/><use xlink:href="#33" y="75.985"/><use xlink:href="#34" y="78.156"/><use xlink:href="#35" y="80.327"/><use xlink:href="#36" y="82.498"/><use xlink:href="#31" y="84.669"/><use xlink:href="#37" y="86.84"/><use xlink:href="#33" y="89.011"/><use xlink:href="#38" y="91.182"/><use xlink:href="#35" y="93.353"/><use xlink:href="#39" y="95.524"/><use xlink:href="#40" y="97.695"/><use xlink:href="#41" y="99.866"/><use xlink:href="#42" y="102.037"/><use xlink:href="#43" y="104.208"/><use xlink:href="#44" y="106.379"/><use xlink:href="#45" y="108.55"/><use xlink:href="#46" y="110.721"/><use xlink:href="#47" y="112.892"/><use xlink:href="#48" y="115.063"/><use xlink:href="#49" y="117.234"/><use xlink:href="#50" y="119.405"/><use xlink:href="#51" y="121.576"/><use xlink:href="#52" y="123.747"/><use xlink:href="#53" y="125.918"/><use xlink:href="#54" y="128.089"/><use xlink:href="#1" y="130.26"/></svg><svg x="3699"><use xlink:href="#a"/><use xlink:href="#b" x="-.004" y="132.406"/><use xlink:href="#3"/><use xlink:href="#4" y="2.171"/><use xlink:href="#5" y="6.513"/><use xlink:href="#6" y="8.684"/><use xlink:href="#7" y="13.026"/><use xlink:href="#8" y="15.197"/><use xlink:href="#9" y="19.539"/><use xlink:href="#10" y="23.881"/><use xlink:href="#11" y="26.052"/><use xlink:href="#12" y="28.223"/><use xlink:href="#13" y="30.394"/><use xlink:href="#14" y="32.565"/><use xlink:href="#15" y="34.736"/><use xlink:href="#16" y="36.907"/><use xlink:href="#17" y="39.078"/><use xlink:href="#18" y="41.249"/><use xlink:href="#19" y="43.42"/><use xlink:href="#20" y="45.591"/><use xlink:href="#21" y="47.762"/><use xlink:href="#22" y="49.933"/><use xlink:href="#23" y="54.275"/><use xlink:href="#24" y="56.446"/><use xlink:href="#25" y="58.617"/><use xlink:href="#26" y="60.788"/><use xlink:href="#27" y="62.959"/><use xlink:href="#28" y="65.13"/><use xlink:href="#29" y="67.301"/><use xlink:href="#30" y="69.472"/><use xlink:href="#31" y="71.643"/><use xlink:href="#32" y="73.814"/><use xlink:href="#33" y="75.985"/><use xlink:href="#34" y="78.156"/><use xlink:href="#35" y="80.327"/><use xlink:href="#36" y="82.498"/><use xlink:href="#31" y="84.669"/><use xlink:href="#37" y="86.84"/><use xlink:href="#33" y="89.011"/><use xlink:href="#38" y="91.182"/><use xlink:href="#35" y="93.353"/><use xlink:href="#39" y="95.524"/><use xlink:href="#40" y="97.695"/><use xlink:href="#41" y="99.866"/><use xlink:href="#42" y="102.037"/><use xlink:href="#43" y="104.208"/><use xlink:href="#44" y="106.379"/><use xlink:href="#45" y="108.55"/><use xlink:href="#46" y="110.721"/><use xlink:href="#47" y="112.892"/><use xlink:href="#48" y="115.063"/><use xlink:href="#49" y="117.234"/><use xlink:href="#50" y="119.405"/><use xlink:href="#51" y="121.576"/><use xlink:href="#52" y="123.747"/><use xlink:href="#53" y="125.918"/><use xlink:href="#54" y="128.089"/><use xlink:href="#1" y="130.26"/></svg></svg></g></g></svg></svg>