<?xml version="1.0" encoding="utf-8"?>
<!-- Generator: Adobe Illustrator 27.5.0, SVG Export Plug-In . SVG Version: 6.00 Build 0)  -->
<svg version="1.1" id="Calque_1" xmlns="http://www.w3.org/2000/svg" xmlns:xlink="http://www.w3.org/1999/xlink" x="0px" y="0px"
	 viewBox="0 0 512 512" style="enable-background:new 0 0 512 512;" xml:space="preserve">
<style type="text/css">
	.st0{fill:#3F52E3;}
	.st1{fill:#21BF73;}
	.st2{fill:#FFFFFF;}
</style>
<rect x="-2.7" y="-3" class="st0" width="517.6" height="518"/>
<g>
	<g>
		<path class="st1" d="M260,448.9c-3.3,0-5.9-2.7-5.9-5.9v-112c0-3.3,2.7-5.9,5.9-5.9c3.2,0,5.9,2.7,5.9,5.9v112
			C266,446.3,263.3,448.9,260,448.9z"/>
	</g>
	<g>
		<path class="st1" d="M199.3,428.4h-23.7c-3.3,0-5.9-2.7-5.9-5.9c0-3.3,2.7-5.9,5.9-5.9h23.7c2.8,0,5.1-2.3,5.1-5.1v-80.6
			c0-3.3,2.7-5.9,5.9-5.9c3.3,0,5.9,2.7,5.9,5.9v80.5C216.3,420.8,208.6,428.4,199.3,428.4z"/>
	</g>
	<g>
		<path class="st1" d="M150.4,384.2h-23.7c-3.3,0-5.9-2.7-5.9-5.9c0-3.2,2.7-5.9,5.9-5.9h23.7c2.8,0,5.1-2.3,5.1-5.1V331
			c0-3.3,2.7-5.9,5.9-5.9c3.3,0,5.9,2.7,5.9,5.9v36.3C167.4,376.6,159.8,384.2,150.4,384.2z"/>
	</g>
	<g>
		<path class="st1" d="M352.4,428.4h-31.6c-9.3,0-16.9-7.6-16.9-16.9v-80.6c0-3.3,2.7-5.9,5.9-5.9c3.3,0,5.9,2.7,5.9,5.9v80.5
			c0,2.8,2.3,5.1,5.1,5.1h31.6c3.3,0,5.9,2.7,5.9,5.9C358.3,425.7,355.6,428.4,352.4,428.4z"/>
	</g>
	<g>
		<path class="st1" d="M393.4,384.2h-23.7c-9.3,0-16.9-7.6-16.9-16.9V331c0-3.3,2.7-5.9,5.9-5.9c3.3,0,5.9,2.7,5.9,5.9v36.3
			c0,2.8,2.3,5.1,5.1,5.1h23.7c3.3,0,5.9,2.7,5.9,5.9C399.3,381.5,396.7,384.2,393.4,384.2z"/>
	</g>
	<g>
		<circle class="st2" cx="260" cy="450.9" r="15.8"/>
		<circle class="st2" cx="167.8" cy="422.4" r="15.8"/>
		<circle class="st2" cx="118.8" cy="378.3" r="15.8"/>
		<circle class="st2" cx="352.4" cy="422.4" r="15.8"/>
		<circle class="st2" cx="401.3" cy="378.3" r="15.8"/>
	</g>
	<g>
		<path class="st2" d="M275.4,454.4c-1.6,7-7.9,12.3-15.4,12.3c-8.7,0-15.8-7-15.8-15.8c0-7.5,5.2-13.8,12.3-15.4
			c-0.2,1.1-0.4,2.3-0.4,3.5c0,8.7,7,15.8,15.8,15.8C273.1,454.8,274.3,454.7,275.4,454.4z"/>
		<path class="st2" d="M183.1,426c-1.6,7-7.9,12.3-15.4,12.3c-8.7,0-15.8-7-15.8-15.8c0-7.5,5.2-13.8,12.3-15.4
			c-0.2,1.1-0.4,2.3-0.4,3.5c0,8.7,7,15.8,15.8,15.8C180.8,426.4,182,426.3,183.1,426z"/>
		<path class="st2" d="M134.2,381.9c-1.6,7-7.9,12.3-15.4,12.3c-8.7,0-15.8-7-15.8-15.8c0-7.5,5.2-13.8,12.3-15.4
			c-0.2,1.1-0.4,2.3-0.4,3.5c0,8.7,7,15.8,15.8,15.8C131.9,382.2,133.1,382.1,134.2,381.9z"/>
		<path class="st2" d="M367.8,426c-1.6,7-7.9,12.3-15.4,12.3c-8.7,0-15.8-7-15.8-15.8c0-7.5,5.2-13.8,12.3-15.4
			c-0.2,1.1-0.4,2.3-0.4,3.5c0,8.7,7,15.8,15.8,15.8C365.4,426.4,366.6,426.3,367.8,426z"/>
		<path class="st2" d="M416.6,381.9c-1.6,7-7.9,12.3-15.4,12.3c-8.7,0-15.8-7-15.8-15.8c0-7.5,5.2-13.8,12.3-15.4
			c-0.2,1.1-0.4,2.3-0.4,3.5c0,8.7,7,15.8,15.8,15.8C414.4,382.2,415.5,382.1,416.6,381.9z"/>
	</g>
</g>
<path class="st2" d="M391.6,329.7H144.9c-48.2,0-87.3-39.2-87.3-87.4S96.8,155,145,155c5.3,0,10.5,0.5,15.8,1.5
	c14.3-35.1,54.1-51.8,89.3-37.7c0.2,0.1,0.4,0.2,0.6,0.2c24.8-41.1,78.2-54.3,119.3-29.5c31.9,19.4,48.1,57,40,93.4
	c39.8,10.1,64,50.6,53.8,90.4C455.4,306.6,425.8,329.7,391.6,329.7L391.6,329.7z"/>
<g>
	<path class="st0" d="M112.3,231.6c-4.1-3.5-6.3-8.7-6.5-15.4c-0.1-1.4-0.1-3.6-0.1-6.7c0-3.1,0-5.4,0.1-6.9
		c0.2-6.6,2.5-11.7,6.7-15.3c4.1-3.6,9.8-5.4,16.9-5.4c4.4,0,8.5,0.8,12,2.2c3.6,1.5,6.4,3.7,8.4,6.4c2.1,2.8,3.1,6.1,3.1,9.7v0.2
		c0,0.4-0.2,0.8-0.5,1c-0.3,0.3-0.7,0.4-1.1,0.4h-10.3c-0.7,0-1.1-0.2-1.5-0.4c-0.4-0.3-0.7-0.8-0.9-1.5c-0.7-2.6-1.8-4.4-3.4-5.4
		c-1.5-1.1-3.5-1.5-6.1-1.5c-6,0-9.1,3.4-9.3,10.1c-0.1,1.4-0.1,3.5-0.1,6.4c0,2.8,0,5,0.1,6.5c0.2,6.7,3.3,10.1,9.3,10.1
		c2.5,0,4.5-0.5,6.1-1.6c1.6-1.1,2.7-2.9,3.3-5.4c0.2-0.8,0.5-1.3,0.8-1.5c0.4-0.3,0.9-0.4,1.6-0.4h10.3c0.5,0,0.8,0.2,1.1,0.5
		c0.3,0.3,0.5,0.7,0.4,1.1c-0.1,3.8-1.1,7-3.1,9.7c-2.1,2.8-4.9,4.9-8.4,6.4c-3.6,1.5-7.6,2.2-12,2.2
		C122,236.9,116.4,235.1,112.3,231.6z"/>
	<path class="st0" d="M160.8,235.6c-0.4-0.4-0.5-0.8-0.5-1.3v-50.5c0-0.5,0.2-1,0.5-1.4c0.4-0.4,0.8-0.5,1.3-0.5h9
		c0.5,0,1,0.2,1.4,0.5c0.4,0.4,0.5,0.8,0.5,1.4v50.4c0,0.5-0.2,1-0.5,1.4c-0.4,0.4-0.8,0.5-1.4,0.5h-9
		C161.6,236.1,161.2,236,160.8,235.6z"/>
	<path class="st0" d="M186.2,232.4c-3.4-3-5.3-7.2-5.6-12.6c-0.1-0.7-0.1-1.8-0.1-3.4c0-1.6,0-2.8,0.1-3.4c0.3-5.4,2.2-9.6,5.7-12.6
		c3.5-3.1,8.3-4.5,14.4-4.5c6.1,0,11,1.5,14.5,4.5c3.5,3.1,5.4,7.3,5.7,12.6c0.1,0.7,0.1,1.8,0.1,3.4c0,1.6,0,2.8-0.1,3.4
		c-0.3,5.4-2.1,9.6-5.6,12.6c-3.4,3-8.3,4.5-14.6,4.5C194.5,236.9,189.7,235.4,186.2,232.4z M205.7,225.5c1.1-1.4,1.7-3.4,1.8-6.2
		c0.1-0.5,0.1-1.5,0.1-3.1s0-2.5-0.1-3.1c-0.2-2.8-0.8-4.8-1.8-6.2c-1.1-1.4-2.8-2.1-4.9-2.1c-4.2,0-6.4,2.8-6.7,8.3l-0.1,3.1
		l0.1,3.1c0.1,2.8,0.7,4.9,1.8,6.2c1.1,1.4,2.8,2,4.9,2C203.1,227.6,204.7,226.9,205.7,225.5z"/>
	<path class="st0" d="M232.4,232.4c-2.8-3.1-4.1-7.3-4.1-12.7v-21.3c0-0.5,0.2-1,0.5-1.4c0.4-0.4,0.8-0.5,1.4-0.5h9.6
		c0.5,0,1,0.2,1.4,0.5c0.4,0.4,0.5,0.8,0.5,1.4v20.8c0,5,2.2,7.5,6.7,7.5c2.1,0,3.8-0.7,5.1-2c1.2-1.3,1.8-3.1,1.8-5.5v-20.8
		c0-0.5,0.2-1,0.5-1.4c0.4-0.4,0.8-0.5,1.3-0.5h9.6c0.5,0,1,0.2,1.4,0.5c0.4,0.4,0.5,0.8,0.5,1.4v35.8c0,0.5-0.2,0.9-0.5,1.3
		c-0.4,0.4-0.8,0.5-1.4,0.5h-8.9c-0.5,0-0.9-0.2-1.3-0.5c-0.4-0.4-0.5-0.8-0.5-1.3v-2.9c-2.7,3.8-6.9,5.6-12.6,5.6
		C238.7,236.9,235.1,235.3,232.4,232.4z"/>
	<path class="st0" d="M280.7,232.2c-2.8-3.1-4.3-7.5-4.5-13.2l-0.1-2.7l0.1-2.8c0.2-5.5,1.7-9.9,4.5-13c2.8-3.2,6.7-4.8,11.6-4.8
		c4.6,0,8.3,1.5,11.3,4.5v-16.4c0-0.5,0.2-1,0.5-1.4c0.4-0.4,0.8-0.5,1.4-0.5h9.3c0.5,0,1,0.2,1.4,0.5c0.4,0.4,0.5,0.8,0.5,1.4v50.4
		c0,0.5-0.2,0.9-0.5,1.3s-0.8,0.5-1.4,0.5h-8.7c-0.5,0-0.9-0.2-1.3-0.5c-0.4-0.4-0.5-0.8-0.5-1.3v-2.5c-2.8,3.4-6.7,5.1-11.9,5.1
		C287.4,236.9,283.5,235.3,280.7,232.2z M301.7,224.5c1.1-1.5,1.8-3.3,1.9-5.6c0.1-0.7,0.1-1.6,0.1-2.9c0-1.2,0-2.1-0.1-2.8
		c-0.1-2.1-0.8-3.8-1.9-5.2c-1.1-1.4-2.9-2.1-5.1-2.1c-2.4,0-4.1,0.7-5.1,2.1c-1.1,1.5-1.6,3.4-1.8,5.9c-0.1,0.5-0.1,1.3-0.1,2.4
		s0,1.8,0.1,2.4c0.2,2.5,0.8,4.4,1.8,5.9c1.1,1.5,2.8,2.1,5.1,2.1C298.9,226.7,300.5,225.9,301.7,224.5z"/>
</g>
<g>
	<path class="st0" d="M219.1,303.3c-0.3-0.3-0.5-0.7-0.5-1.1c0-0.3,0-0.5,0.1-0.7l17.9-49c0.2-0.6,0.5-1.1,1-1.5
		c0.5-0.4,1.1-0.6,2-0.6h11.3c0.8,0,1.5,0.2,2,0.6c0.5,0.4,0.8,0.9,1,1.5l17.8,49l0.2,0.7c0,0.4-0.2,0.8-0.5,1.1
		c-0.3,0.3-0.7,0.5-1.1,0.5h-9.4c-1.2,0-2.1-0.5-2.5-1.6l-3-7.8H235l-2.9,7.8c-0.4,1.1-1.2,1.6-2.5,1.6h-9.4
		C219.8,303.8,219.4,303.6,219.1,303.3z M252.3,283.4l-7.1-20.1l-7.1,20.1H252.3z"/>
	<path class="st0" d="M278.4,303.2c-0.4-0.4-0.5-0.8-0.5-1.3v-49.6c0-0.5,0.2-1,0.5-1.4s0.8-0.5,1.3-0.5h21.4
		c6.5,0,11.6,1.5,15.4,4.5c3.8,3,5.6,7.4,5.6,13.1c0,5.7-1.8,10-5.6,12.9c-3.8,2.9-8.9,4.3-15.4,4.3H292v16.7c0,0.5-0.2,1-0.5,1.4
		s-0.8,0.5-1.4,0.5h-10.3C279.3,303.8,278.8,303.6,278.4,303.2z M300.7,274.6c2.2,0,4-0.5,5.3-1.7c1.3-1.1,1.9-2.8,1.9-5.1
		c0-2.1-0.6-3.8-1.8-5c-1.2-1.2-3-1.8-5.4-1.8h-9v13.6L300.7,274.6L300.7,274.6z"/>
	<path class="st0" d="M330,303.2c-0.4-0.4-0.5-0.8-0.5-1.3v-49.6c0-0.5,0.2-1,0.5-1.4c0.4-0.4,0.8-0.5,1.3-0.5h10.3
		c0.5,0,1,0.2,1.4,0.5c0.4,0.4,0.5,0.8,0.5,1.4v49.6c0,0.5-0.2,1-0.5,1.4c-0.4,0.4-0.8,0.5-1.4,0.5h-10.3
		C330.8,303.8,330.4,303.6,330,303.2z"/>
	<path class="st0" d="M354.8,303.2c-0.4-0.4-0.5-0.8-0.5-1.3v-49.6c0-0.5,0.2-1,0.5-1.4c0.4-0.4,0.8-0.5,1.3-0.5h8.3
		c1.2,0,2.1,0.5,2.7,1.7l13.4,24l13.4-24c0.5-1.1,1.5-1.7,2.7-1.7h8.2c0.5,0,1,0.2,1.4,0.5s0.5,0.8,0.5,1.4v49.6
		c0,0.5-0.2,1-0.5,1.4c-0.4,0.4-0.8,0.5-1.4,0.5h-9.1c-0.5,0-1-0.2-1.4-0.5c-0.4-0.4-0.5-0.8-0.5-1.4v-28.6l-8.6,15.9
		c-0.7,1.1-1.5,1.8-2.7,1.8h-4c-0.7,0-1.2-0.2-1.6-0.5c-0.4-0.3-0.8-0.8-1.1-1.3l-8.7-15.9v28.6c0,0.5-0.2,0.9-0.5,1.3
		c-0.4,0.4-0.8,0.5-1.4,0.5H356C355.5,303.8,355.2,303.6,354.8,303.2z"/>
</g>
<path class="st0" d="M338.5,110.7c9.9,2.7,18.2,9,23.6,17.6c2.2,3.6,7,4.7,10.6,2.5c3.6-2.2,4.7-7,2.5-10.6
	c-7.4-11.9-19-20.5-32.5-24.3c-4.1-1.1-8.3,1.3-9.4,5.4C332,105.4,334.4,109.6,338.5,110.7L338.5,110.7z"/>
</svg>
